<?xml version="1.0" standalone="no"?>
<!DOCTYPE svg PUBLIC "-//W3C//DTD SVG 20010904//EN"
 "http://www.w3.org/TR/2001/REC-SVG-20010904/DTD/svg10.dtd">
<svg version="1.0" xmlns="http://www.w3.org/2000/svg"
 width="1280.000000pt" height="645.000000pt" viewBox="0 0 1280.000000 645.000000"
 preserveAspectRatio="xMidYMid meet">
<metadata>
Created by potrace 1.15, written by Peter Selinger 2001-2017
</metadata>
<g transform="translate(0.000000,645.000000) scale(0.100000,-0.100000)"
fill="#000000" stroke="none">
<path d="M11775 6445 c-5 -2 -59 -19 -120 -38 -207 -66 -332 -135 -518 -286
-66 -53 -134 -107 -153 -120 -35 -24 -140 -54 -157 -44 -5 3 -17 25 -27 49
-18 41 -20 43 -53 37 -28 -4 -44 1 -87 31 -29 20 -59 36 -67 36 -8 0 -26 -13
-41 -29 -17 -18 -45 -34 -74 -41 -26 -7 -45 -16 -42 -21 3 -5 -2 -6 -10 -3
-11 4 -20 -9 -33 -46 -19 -56 -68 -100 -109 -100 -25 0 -79 76 -95 134 -8 27
-16 36 -40 41 -17 4 -35 3 -40 -2 -14 -14 15 -99 56 -166 19 -32 35 -61 35
-66 0 -4 -30 -32 -67 -62 -37 -30 -81 -69 -99 -87 -23 -24 -48 -37 -95 -48
-35 -8 -81 -19 -102 -25 -22 -6 -73 -13 -115 -15 -43 -3 -99 -12 -127 -20 -49
-15 -175 -91 -175 -106 0 -4 12 -11 28 -15 27 -7 27 -7 -10 -13 -38 -7 -214
-4 -281 4 -39 5 -91 -13 -150 -51 l-27 -18 -43 47 c-65 72 -77 88 -77 97 0 5
-7 14 -15 21 -12 10 -15 9 -16 -6 0 -11 -3 -14 -6 -6 -2 6 -9 12 -14 12 -10 0
-5 -28 21 -107 21 -65 12 -69 -18 -8 -32 65 -58 79 -125 65 -71 -14 -90 -36
-93 -104 -3 -80 -50 -140 -92 -117 -18 10 -29 21 -147 159 -72 84 -98 99 -131
77 -31 -20 -30 -25 11 -55 19 -14 59 -54 89 -90 30 -36 75 -85 100 -110 25
-24 46 -48 46 -52 0 -5 -27 -35 -60 -68 -35 -35 -54 -61 -47 -64 26 -10 -19
-26 -75 -26 -32 0 -58 -4 -58 -8 0 -5 -21 -7 -47 -6 -25 2 -50 1 -55 -2 -10
-6 -109 -17 -143 -15 -11 0 -29 -3 -40 -8 -72 -33 -113 -53 -130 -67 -17 -13
-18 -16 -5 -24 8 -5 23 -10 33 -10 9 0 17 -3 17 -7 0 -13 -181 -14 -196 -2
-11 9 -14 7 -15 -7 0 -11 -3 -14 -5 -9 -2 6 -20 9 -39 7 -19 -2 -35 0 -35 4 0
13 -169 9 -209 -4 -19 -6 -52 -23 -72 -37 -21 -14 -43 -25 -49 -25 -5 0 -10
21 -10 46 0 29 -4 43 -10 39 -21 -13 -90 -107 -85 -115 3 -5 21 -6 40 -3 22 3
35 2 35 -5 0 -18 -20 -25 -34 -12 -11 8 -15 8 -18 -1 -4 -12 -130 -21 -253
-17 -38 1 -39 1 -12 10 16 6 27 17 27 27 0 43 -81 109 -111 90 -8 -5 -11 -9
-7 -9 14 0 -43 -50 -58 -50 -35 0 -85 -30 -100 -62 -13 -28 -29 -38 -105 -68
-49 -19 -89 -38 -89 -42 0 -17 -84 -6 -175 23 -80 27 -99 30 -106 18 -21 -34
-7 -47 91 -85 30 -12 56 -26 57 -31 2 -5 -24 -31 -57 -58 -33 -26 -57 -52 -54
-56 3 -5 0 -9 -6 -9 -7 0 -30 -16 -52 -35 -23 -19 -44 -32 -48 -30 -4 3 -13
-2 -20 -11 -7 -8 -19 -13 -26 -10 -15 6 -83 -26 -141 -65 -23 -16 -44 -29 -48
-29 -13 0 -121 -79 -158 -115 -20 -21 -40 -48 -43 -61 -5 -18 -13 -24 -33 -24
-47 0 -179 -51 -227 -88 -35 -26 -59 -36 -87 -37 -26 -1 -44 -7 -53 -19 -7
-11 -20 -16 -29 -13 -20 8 -19 26 1 34 13 5 6 12 -27 29 -24 13 -37 23 -29 24
8 0 26 16 39 35 13 20 35 38 48 41 22 6 23 8 10 21 -8 9 -23 12 -34 9 -17 -5
-58 -52 -82 -94 -7 -11 -16 -11 -50 -1 -38 11 -44 10 -68 -8 -26 -19 -57 -61
-69 -93 -7 -20 -51 -40 -86 -40 -37 0 -159 -76 -152 -95 8 -21 -15 -29 -93
-30 -40 0 -75 -4 -79 -8 -4 -4 -23 -7 -43 -7 -20 0 -56 -12 -81 -26 -194 -112
-201 -114 -333 -118 -67 -3 -152 -10 -189 -16 -67 -12 -68 -12 -175 29 -59 23
-118 46 -131 51 -33 14 -58 12 -72 -4 -9 -12 -4 -19 32 -37 73 -36 74 -39 25
-68 -69 -41 -85 -55 -98 -84 -7 -15 -15 -27 -19 -27 -9 0 -63 60 -83 91 -17
28 -53 44 -63 27 -3 -5 11 -37 31 -70 30 -49 35 -62 24 -70 -8 -5 -66 -35
-129 -65 -171 -84 -314 -176 -403 -262 -21 -20 -48 -45 -60 -56 -29 -26 -117
-69 -207 -100 -116 -40 -136 -49 -174 -73 -23 -15 -62 -43 -87 -64 -49 -40
-70 -46 -86 -25 -5 6 -26 50 -47 97 -37 83 -61 120 -78 120 -15 0 -9 -20 48
-152 41 -95 53 -133 45 -141 -8 -8 -11 -8 -11 0 0 14 -91 53 -124 53 -14 0
-28 -4 -31 -10 -3 -5 -16 -10 -28 -10 -30 0 -66 -26 -77 -55 -5 -13 -42 -46
-82 -73 -40 -28 -82 -58 -93 -69 -53 -49 -99 -81 -111 -76 -19 7 -54 -15 -54
-35 -1 -40 -77 -101 -226 -182 -123 -67 -161 -93 -217 -150 -70 -72 -73 -73
-192 -82 -5 -1 -22 2 -37 6 -27 8 -27 8 -7 29 10 11 19 26 19 33 0 18 -39 5
-51 -17 -7 -13 -21 -19 -47 -19 -48 0 -63 11 -76 51 -13 38 -74 79 -119 79
-28 0 -77 -38 -77 -60 0 -5 -12 -10 -28 -10 -22 0 -34 10 -61 51 -39 60 -106
197 -106 219 0 8 -7 15 -15 15 -11 0 -14 -9 -12 -35 2 -30 33 -95 113 -237
l24 -42 -22 -22 c-19 -20 -25 -21 -52 -9 -45 18 -95 5 -140 -38 -21 -20 -40
-43 -42 -50 -5 -15 -73 -41 -110 -42 -22 0 -28 -8 -48 -66 -12 -36 -21 -68
-18 -70 11 -11 85 32 132 77 32 30 69 54 92 60 21 6 64 22 95 36 32 14 64 23
72 20 27 -11 49 -78 48 -146 -2 -86 10 -100 23 -26 l11 60 58 0 59 0 24 -70
c23 -70 46 -105 60 -91 4 4 -2 36 -15 71 -32 92 -30 101 26 128 34 17 71 26
132 30 67 4 114 16 215 52 182 66 254 106 353 198 47 43 94 85 106 92 12 8 77
30 146 50 69 20 188 63 264 95 90 39 152 60 178 60 41 0 108 29 144 62 12 10
48 25 80 33 80 19 114 32 114 46 0 8 -13 10 -40 6 -33 -4 -43 -1 -55 16 -8 12
-15 27 -15 34 0 6 54 45 119 87 65 41 159 104 208 138 49 35 129 81 178 102
110 48 318 161 335 181 7 8 17 15 22 15 6 0 40 21 76 46 79 55 149 84 205 84
49 0 226 30 347 59 47 11 123 25 170 31 87 12 129 32 101 49 -8 5 -20 7 -28 4
-17 -6 -17 11 -1 24 29 23 129 52 215 62 50 6 109 18 131 25 47 17 223 103
236 117 6 5 21 9 35 9 15 0 97 12 184 27 145 24 159 25 174 10 15 -15 8 -25
-85 -120 -86 -88 -102 -110 -102 -136 l0 -32 24 18 c14 10 28 26 33 35 4 9 48
58 97 108 104 108 93 107 251 29 104 -51 125 -54 125 -19 0 13 -22 32 -70 60
-63 37 -86 60 -60 60 5 0 24 13 42 29 18 16 60 45 94 64 33 20 100 71 150 114
71 62 101 82 149 97 134 41 273 134 392 260 58 61 103 79 223 91 121 11 285
36 334 51 68 19 86 18 86 -6 0 -26 29 -40 87 -40 61 0 106 27 132 78 23 45 40
61 78 71 25 7 28 12 28 47 0 44 16 79 44 94 11 5 70 17 132 26 137 19 245 44
363 84 72 24 107 30 173 30 136 0 356 56 468 119 40 23 74 32 151 41 54 6 132
23 173 36 l74 25 21 -20 c19 -18 25 -19 41 -8 11 7 49 24 84 38 44 16 85 44
134 87 82 73 64 72 277 9 200 -59 216 -62 245 -49 50 23 28 38 -127 87 -84 26
-164 53 -178 60 l-25 13 28 11 c16 6 33 11 39 11 6 0 49 15 97 34 47 19 111
37 141 41 30 3 88 15 130 25 41 10 108 23 149 29 86 13 175 53 259 116 l60 45
143 -6 c94 -5 174 -3 229 5 79 11 89 11 133 -8 26 -11 50 -28 54 -38 3 -10 28
-54 54 -98 73 -123 73 -122 -11 -181 -40 -27 -84 -59 -100 -71 -15 -13 -31
-23 -35 -23 -4 0 -39 -21 -79 -46 -225 -147 -265 -178 -400 -316 -74 -75 -116
-103 -246 -164 -19 -9 -62 -36 -96 -59 -33 -24 -128 -88 -211 -144 -117 -77
-165 -117 -214 -173 -112 -128 -140 -151 -212 -177 -37 -12 -73 -29 -80 -35
-7 -7 -30 -19 -52 -26 -22 -6 -63 -23 -92 -37 l-52 -25 -44 21 c-24 12 -54 32
-66 45 l-22 24 21 42 c21 42 24 101 5 106 -5 2 -25 -22 -44 -54 -19 -31 -81
-128 -139 -214 -57 -87 -110 -175 -117 -195 -7 -21 -12 -68 -10 -106 l2 -68
-86 -73 c-47 -41 -97 -86 -111 -101 -62 -68 -173 -135 -225 -135 -14 0 -28 -6
-31 -14 -3 -8 -20 -17 -39 -20 -18 -4 -38 -13 -44 -20 -7 -8 -23 -17 -37 -20
-64 -16 -270 -194 -259 -223 2 -7 -8 -19 -23 -26 -104 -56 -191 -102 -217
-115 -82 -41 -195 -137 -298 -252 -57 -62 -79 -94 -72 -102 14 -14 -137 -92
-163 -84 -10 4 -30 23 -44 44 -75 113 -90 131 -119 141 -52 18 -47 -12 20
-103 34 -47 64 -91 67 -100 10 -25 -17 -18 -56 14 -34 30 -70 40 -70 20 0 -5
-9 -10 -20 -10 -11 0 -20 -4 -20 -10 0 -5 -9 -10 -21 -10 -14 0 -19 -5 -16
-13 4 -10 -1 -13 -17 -10 -37 7 -67 -26 -73 -82 -3 -28 -14 -61 -23 -75 -9
-14 -46 -81 -80 -150 -35 -69 -78 -149 -97 -177 -18 -29 -31 -53 -28 -53 3 0
-5 -11 -17 -25 -12 -14 -28 -25 -35 -25 -7 0 -13 -4 -13 -9 0 -5 -8 -11 -17
-15 -10 -3 -40 -19 -68 -34 -27 -16 -72 -41 -100 -56 -80 -44 -225 -208 -281
-318 -20 -40 -35 -54 -95 -85 -127 -68 -172 -112 -275 -270 -62 -95 -99 -143
-108 -140 -55 21 -172 49 -285 67 -122 19 -135 19 -157 5 -42 -27 -31 -38 49
-50 55 -8 63 -17 69 -70 4 -32 0 -46 -19 -68 -12 -16 -23 -40 -23 -54 0 -16
-17 -44 -48 -78 -60 -66 -106 -144 -148 -248 -28 -69 -42 -90 -90 -133 l-57
-51 48 -17 c27 -9 54 -16 61 -16 7 0 27 27 44 59 38 70 58 91 170 170 127 91
133 85 66 -65 -73 -166 -92 -224 -75 -235 27 -17 37 -8 59 57 25 77 165 404
177 415 4 4 25 10 45 14 34 6 39 4 82 -40 25 -26 58 -73 74 -104 19 -39 35
-57 50 -59 19 -3 22 1 22 31 0 34 -42 106 -107 186 l-27 33 36 32 c48 42 58
65 52 122 l-5 49 62 45 c80 59 269 255 324 337 28 42 62 78 97 101 93 62 163
125 332 302 91 95 179 181 196 191 40 25 85 26 76 2 -4 -9 -1 -20 6 -25 10 -6
9 -8 -4 -8 -44 0 -87 -44 -88 -87 0 -27 49 -13 74 20 33 43 69 124 61 137 -3
6 0 10 7 10 7 0 19 13 26 29 8 19 37 43 84 70 61 35 79 41 130 41 77 0 106
-16 152 -85 39 -59 88 -90 162 -102 29 -5 34 -3 33 13 -1 35 -14 52 -75 97
-74 54 -144 125 -144 146 0 8 9 24 20 36 20 21 40 101 40 157 0 52 88 140 215
215 162 96 245 161 387 303 98 98 137 131 175 145 45 17 185 94 295 161 247
151 354 233 493 373 66 68 88 81 99 62 18 -28 68 -304 66 -363 -1 -72 8 -85
35 -45 22 34 20 95 -9 267 -26 148 -26 155 -9 168 45 34 100 53 175 63 98 12
116 21 133 64 12 27 42 49 172 126 168 100 233 153 233 187 0 29 -9 28 -61
-10 -83 -61 -166 -113 -242 -153 -72 -38 -77 -39 -93 -23 -23 22 -12 35 81 98
38 26 107 81 151 121 64 58 122 96 270 178 248 137 323 194 534 403 94 93 98
96 335 220 304 159 369 192 425 211 170 60 233 96 270 156 19 30 37 44 70 56
24 8 75 34 112 56 58 35 74 41 106 35 74 -12 229 -66 274 -96 52 -34 88 -34
88 1 0 54 -48 82 -252 149 -65 21 -68 23 -62 48 12 51 22 57 146 96 209 67
389 156 563 279 55 38 114 74 130 78 168 45 329 104 464 170 115 56 250 137
251 150 0 3 -51 23 -112 44 l-113 38 -115 -54 c-133 -63 -254 -132 -290 -164
-42 -39 -162 -115 -189 -121 -186 -41 -611 -205 -611 -236 0 -4 -4 -8 -10 -8
-13 0 -109 -58 -136 -82 -19 -17 -22 -17 -90 2 -38 11 -114 23 -168 27 -78 5
-103 10 -118 25 -19 19 -18 20 49 82 93 85 281 253 337 299 25 21 77 51 115
66 112 47 396 223 495 307 22 19 54 37 73 40 53 10 47 20 -22 43 -62 20 -88
24 -110 16z m-797 -593 c-1 -5 -40 -41 -85 -80 -56 -50 -86 -70 -98 -66 -34
14 -11 48 68 102 70 46 125 67 115 44z m-588 -67 c0 -18 -5 -25 -20 -25 -25 0
-38 29 -19 41 25 15 39 10 39 -16z m-74 -90 c32 -19 64 -35 71 -35 7 0 13 -4
13 -9 0 -14 -46 -22 -119 -22 -36 1 -87 0 -113 -2 -28 -1 -47 2 -46 8 0 6 8 9
17 7 9 -1 21 8 26 20 9 21 68 68 85 68 4 0 34 -16 66 -35z m-246 -65 c0 -5 -4
-10 -10 -10 -5 0 -10 5 -10 10 0 6 5 10 10 10 6 0 10 -4 10 -10z m700 -177
c17 -22 18 -29 8 -39 -19 -19 -54 -7 -67 23 -22 48 23 61 59 16z m-1950 -108
c11 -13 8 -15 -14 -13 -28 2 -34 13 -13 21 6 3 13 6 13 6 1 1 7 -6 14 -14z
m-240 -223 c26 -21 21 -36 -18 -56 -54 -27 -69 -28 -75 -5 -4 15 3 30 23 50
33 34 40 35 70 11z m2044 -34 c-5 -13 -168 -122 -199 -134 -8 -3 -15 -2 -15 3
0 13 39 47 79 69 36 20 135 72 138 73 1 1 0 -5 -3 -11z m-3384 -328 c0 -5 -4
-10 -10 -10 -5 0 -10 5 -10 10 0 6 5 10 10 10 6 0 10 -4 10 -10z m-360 -110
c0 -5 -2 -10 -4 -10 -3 0 -8 5 -11 10 -3 6 -1 10 4 10 6 0 11 -4 11 -10z
m-231 -33 c21 -27 -9 -35 -56 -16 l-28 12 25 7 c38 12 47 11 59 -3z m246 -47
c3 -5 1 -10 -4 -10 -6 0 -11 5 -11 10 0 6 2 10 4 10 3 0 8 -4 11 -10z m-298
-36 c80 -7 113 -27 72 -43 -13 -5 -49 -13 -79 -19 -265 -50 -323 -39 -210 41
49 35 60 38 100 33 25 -3 78 -8 117 -12z m-897 -475 c0 -5 -4 -9 -10 -9 -5 0
-10 7 -10 16 0 8 5 12 10 9 6 -3 10 -10 10 -16z m-615 -119 c3 -5 -1 -10 -9
-10 -9 0 -16 5 -16 10 0 6 4 10 9 10 6 0 13 -4 16 -10z m3568 -36 c55 -37 44
-49 -46 -51 -84 -3 -92 4 -61 52 21 33 59 32 107 -1z m-3463 -45 c0 -11 -27
-12 -34 0 -3 4 -3 11 0 14 8 8 34 -3 34 -14z m-233 -76 c3 -7 -13 -14 -41 -18
-56 -9 -79 2 -45 21 28 16 81 14 86 -3z m3593 -61 c0 -17 -41 -51 -55 -46 -20
8 -19 24 3 40 19 15 52 18 52 6z m226 -43 c10 -17 -12 -32 -35 -24 -29 9 -27
35 3 35 14 0 28 -5 32 -11z m-5062 -195 c9 -3 16 -10 16 -15 0 -12 -77 -12
-84 0 -11 16 37 27 68 15z m-534 -283 c0 -9 -100 -71 -114 -71 -20 0 0 24 41
50 48 30 73 38 73 21z m-1226 -647 c27 -10 18 -33 -20 -49 -41 -17 -84 -20
-84 -6 0 13 59 61 75 61 7 0 20 -3 29 -6z m46 -89 c0 -16 -275 -125 -313 -125
-16 0 -5 30 15 41 73 39 298 102 298 84z m4418 -423 c2 -12 -6 -42 -17 -65
-12 -24 -21 -48 -21 -53 0 -6 -13 -20 -30 -32 -29 -22 -29 -22 -40 -2 -15 27
62 183 88 178 9 -2 18 -13 20 -26z m-5628 -82 c0 -5 -7 -10 -16 -10 -8 0 -12
5 -9 10 3 6 10 10 16 10 5 0 9 -4 9 -10z m-205 -70 c3 -5 2 -10 -4 -10 -5 0
-13 5 -16 10 -3 6 -2 10 4 10 5 0 13 -4 16 -10z m4345 -1136 c0 -2 -7 -4 -15
-4 -8 0 -15 4 -15 10 0 5 7 7 15 4 8 -4 15 -8 15 -10z m-53 -251 c6 -15 1 -20
-101 -93 -38 -28 -75 -50 -83 -50 -14 0 -19 36 -5 42 4 2 20 22 36 46 16 24
42 54 58 67 24 21 32 22 59 13 17 -6 33 -17 36 -25z"/>
<path d="M4 1608 c-3 -5 -2 -14 2 -18 11 -11 146 -62 150 -57 2 2 -6 13 -19
24 -31 28 -125 64 -133 51z"/>
</g>
</svg>
